<svg xmlns="http://www.w3.org/2000/svg" width="24" height="24" viewBox="0 0 24 24">
  <defs>
    <style>
      .cls-1 {
        fill: #8587dc;
        opacity: 0.4;
      }

      .cls-2 {
        fill: #200e32;
      }

      .cls-3 {
        fill: none;
        opacity: 0;
      }
    </style>
  </defs>
  <g id="vuesax_bulk_profile" data-name="vuesax/bulk/profile" transform="translate(-108 -252)">
    <g id="profile">
      <path id="Vector" class="cls-1" d="M4.75,0a4.746,4.746,0,0,0-.12,9.49.807.807,0,0,1,.22,0h.07A4.746,4.746,0,0,0,4.75,0Z" transform="translate(115.25 254)"/>
      <path id="Vector-2" data-name="Vector" class="cls-2" d="M12.12,1.395a9.929,9.929,0,0,0-10.15,0A3.947,3.947,0,0,0,0,4.625a3.914,3.914,0,0,0,1.96,3.21,9.239,9.239,0,0,0,5.08,1.41,9.239,9.239,0,0,0,5.08-1.41,3.945,3.945,0,0,0,1.96-3.23A3.937,3.937,0,0,0,12.12,1.395Z" transform="translate(112.96 264.755)"/>
      <path id="Vector-3" data-name="Vector" class="cls-3" d="M0,0H24V24H0Z" transform="translate(108 252)"/>
    </g>
  </g>
</svg>
